<svg xmlns="http://www.w3.org/2000/svg" width="995.8349609375" height="660.0128173828125" viewBox="-595.5824584960938 -321.1920166015625 995.8349609375 660.0128173828125"><title>Neo4j Graph Visualization</title><desc>Created using Neo4j (http://www.neo4j.com/)</desc><g class="layer relationships"><g class="relationship" transform="translate(-378.2682543787198 91.61967663166615) rotate(524.8319162710346)"><path class="b-outline" fill="#A5ABB6" stroke="none" d="M 25 0.5 L 59.58022784080069 0.5 L 59.58022784080069 -0.5 L 25 -0.5 Z M 78.47866534080069 0.5 L 113.05889318160138 0.5 L 113.05889318160138 3.5 L 120.05889318160138 0 L 113.05889318160138 -3.5 L 113.05889318160138 -0.5 L 78.47866534080069 -0.5 Z"/><text text-anchor="middle" pointer-events="none" font-size="8px" fill="#000000" x="69.02944659080069" y="3" transform="rotate(180 69.02944659080069 0)" font-family="Helvetica Neue, Helvetica, Arial, sans-serif">use</text></g><g class="relationship" transform="translate(-378.2682543787198 91.61967663166615) rotate(324.8011306133645)"><path class="b-outline" fill="#A5ABB6" stroke="none" d="M 25 0.5 L 62.817257534025586 0.5 L 62.817257534025586 -0.5 L 25 -0.5 Z M 81.71569503402559 0.5 L 119.53295256805117 0.5 L 119.53295256805117 3.5 L 126.53295256805117 0 L 119.53295256805117 -3.5 L 119.53295256805117 -0.5 L 81.71569503402559 -0.5 Z"/><text text-anchor="middle" pointer-events="none" font-size="8px" fill="#000000" x="72.26647628402559" y="3" font-family="Helvetica Neue, Helvetica, Arial, sans-serif">use</text></g><g class="relationship" transform="translate(-378.2682543787198 91.61967663166615) rotate(473.66366736353314)"><path class="b-outline" fill="#A5ABB6" stroke="none" d="M 25 0.5 L 61.60799584541982 0.5 L 61.60799584541982 -0.5 L 25 -0.5 Z M 80.50643334541982 0.5 L 117.11442919083964 0.5 L 117.11442919083964 3.5 L 124.11442919083964 0 L 117.11442919083964 -3.5 L 117.11442919083964 -0.5 L 80.50643334541982 -0.5 Z"/><text text-anchor="middle" pointer-events="none" font-size="8px" fill="#000000" x="71.05721459541982" y="3" transform="rotate(180 71.05721459541982 0)" font-family="Helvetica Neue, Helvetica, Arial, sans-serif">use</text></g><g class="relationship" transform="translate(-378.2682543787198 91.61967663166615) rotate(435.11390829666743)"><path class="b-outline" fill="#A5ABB6" stroke="none" d="M 25 0.5 L 63.39868303085818 0.5 L 63.39868303085818 -0.5 L 25 -0.5 Z M 82.29712053085818 0.5 L 120.69580356171636 0.5 L 120.69580356171636 3.5 L 127.69580356171636 0 L 120.69580356171636 -3.5 L 120.69580356171636 -0.5 L 82.29712053085818 -0.5 Z"/><text text-anchor="middle" pointer-events="none" font-size="8px" fill="#000000" x="72.84790178085818" y="3" font-family="Helvetica Neue, Helvetica, Arial, sans-serif">use</text></g><g class="relationship" transform="translate(-378.2682543787198 91.61967663166615) rotate(396.5705146037416)"><path class="b-outline" fill="#A5ABB6" stroke="none" d="M 25 0.5 L 61.70598959859248 0.5 L 61.70598959859248 -0.5 L 25 -0.5 Z M 80.60442709859248 0.5 L 117.31041669718496 0.5 L 117.31041669718496 3.5 L 124.31041669718496 0 L 117.31041669718496 -3.5 L 117.31041669718496 -0.5 L 80.60442709859248 -0.5 Z"/><text text-anchor="middle" pointer-events="none" font-size="8px" fill="#000000" x="71.15520834859248" y="3" font-family="Helvetica Neue, Helvetica, Arial, sans-serif">use</text></g><g class="relationship" transform="translate(-49.787606492380014 159.5778875168342) rotate(359.67785561673895)"><path class="b-outline" fill="#A5ABB6" stroke="none" d="M 25 0.5 L 103.28411042531114 0.5 L 103.28411042531114 -0.5 L 25 -0.5 Z M 122.18254792531114 0.5 L 200.46665835062228 0.5 L 200.46665835062228 3.5 L 207.46665835062228 0 L 200.46665835062228 -3.5 L 200.46665835062228 -0.5 L 122.18254792531114 -0.5 Z"/><text text-anchor="middle" pointer-events="none" font-size="8px" fill="#000000" x="112.73332917531114" y="3" font-family="Helvetica Neue, Helvetica, Arial, sans-serif">use</text></g><g class="relationship" transform="translate(-49.787606492380014 159.5778875168342) rotate(436.37651028057036)"><path class="b-outline" fill="#A5ABB6" stroke="none" d="M 25 0.5 L 64.34695904448888 0.5 L 64.34695904448888 -0.5 L 25 -0.5 Z M 83.24539654448888 0.5 L 122.59235558897777 0.5 L 122.59235558897777 3.5 L 129.59235558897777 0 L 122.59235558897777 -3.5 L 122.59235558897777 -0.5 L 83.24539654448888 -0.5 Z"/><text text-anchor="middle" pointer-events="none" font-size="8px" fill="#000000" x="73.79617779448888" y="3" font-family="Helvetica Neue, Helvetica, Arial, sans-serif">use</text></g><g class="relationship" transform="translate(-49.787606492380014 159.5778875168342) rotate(217.19342792289387)"><path class="b-outline" fill="#A5ABB6" stroke="none" d="M 25 0.5 L 115.50592467419457 0.5 L 115.50592467419457 -0.5 L 25 -0.5 Z M 134.40436217419457 0.5 L 224.91028684838915 0.5 L 224.91028684838915 3.5 L 231.91028684838915 0 L 224.91028684838915 -3.5 L 224.91028684838915 -0.5 L 134.40436217419457 -0.5 Z"/><text text-anchor="middle" pointer-events="none" font-size="8px" fill="#000000" x="124.95514342419457" y="3" transform="rotate(180 124.95514342419457 0)" font-family="Helvetica Neue, Helvetica, Arial, sans-serif">use</text></g><g class="relationship" transform="translate(122.34014781358658 -0.5003506051995714) rotate(335.78136435938586)"><path class="b-outline" fill="#A5ABB6" stroke="none" d="M 25 0.5 L 107.93975215786828 0.5 L 107.93975215786828 -0.5 L 25 -0.5 Z M 126.83818965786828 0.5 L 209.77794181573657 0.5 L 209.77794181573657 3.5 L 216.77794181573657 0 L 209.77794181573657 -3.5 L 209.77794181573657 -0.5 L 126.83818965786828 -0.5 Z"/><text text-anchor="middle" pointer-events="none" font-size="8px" fill="#000000" x="117.38897090786828" y="3" font-family="Helvetica Neue, Helvetica, Arial, sans-serif">use</text></g><g class="relationship" transform="translate(122.34014781358658 -0.5003506051995714) rotate(376.8307421632585)"><path class="b-outline" fill="#A5ABB6" stroke="none" d="M 25 0.5 L 117.07671464686015 0.5 L 117.07671464686015 -0.5 L 25 -0.5 Z M 135.97515214686015 0.5 L 228.0518667937203 0.5 L 228.0518667937203 3.5 L 235.0518667937203 0 L 228.0518667937203 -3.5 L 228.0518667937203 -0.5 L 135.97515214686015 -0.5 Z"/><text text-anchor="middle" pointer-events="none" font-size="8px" fill="#000000" x="126.52593339686015" y="3" font-family="Helvetica Neue, Helvetica, Arial, sans-serif">use</text></g><g class="relationship" transform="translate(122.34014781358658 -0.5003506051995714) rotate(393.5974598238553)"><path class="b-outline" fill="#A5ABB6" stroke="none" d="M 25 0.5 L 62.54318968539643 0.5 L 62.54318968539643 -0.5 L 25 -0.5 Z M 81.44162718539643 0.5 L 118.98481687079286 0.5 L 118.98481687079286 3.5 L 125.98481687079286 0 L 118.98481687079286 -3.5 L 118.98481687079286 -0.5 L 81.44162718539643 -0.5 Z"/><text text-anchor="middle" pointer-events="none" font-size="8px" fill="#000000" x="71.99240843539643" y="3" font-family="Helvetica Neue, Helvetica, Arial, sans-serif">use</text></g><g class="relationship" transform="translate(122.34014781358658 -0.5003506051995714) rotate(467.3831068860449)"><path class="b-outline" fill="#A5ABB6" stroke="none" d="M 25 0.5 L 47.681132192609674 0.5 L 47.681132192609674 -0.5 L 25 -0.5 Z M 66.57956969260968 0.5 L 89.26070188521935 0.5 L 89.26070188521935 3.5 L 96.26070188521935 0 L 89.26070188521935 -3.5 L 89.26070188521935 -0.5 L 66.57956969260968 -0.5 Z"/><text text-anchor="middle" pointer-events="none" font-size="8px" fill="#000000" x="57.130350942609674" y="3" transform="rotate(180 57.130350942609674 0)" font-family="Helvetica Neue, Helvetica, Arial, sans-serif">use</text></g><g class="relationship" transform="translate(122.34014781358658 -0.5003506051995714) rotate(358.5641966878957)"><path class="b-outline" fill="#A5ABB6" stroke="none" d="M 25 0.5 L 73.49028445814643 0.5 L 73.49028445814643 -0.5 L 25 -0.5 Z M 92.38872195814643 0.5 L 140.87900641629287 0.5 L 140.87900641629287 3.5 L 147.87900641629287 0 L 140.87900641629287 -3.5 L 140.87900641629287 -0.5 L 92.38872195814643 -0.5 Z"/><text text-anchor="middle" pointer-events="none" font-size="8px" fill="#000000" x="82.93950320814643" y="3" font-family="Helvetica Neue, Helvetica, Arial, sans-serif">use</text></g><g class="relationship" transform="translate(122.34014781358658 -0.5003506051995714) rotate(514.8772992487679)"><path class="b-outline" fill="#A5ABB6" stroke="none" d="M 25 0.5 L 57.039416133661774 0.5 L 57.039416133661774 -0.5 L 25 -0.5 Z M 75.93785363366177 0.5 L 107.97726976732355 0.5 L 107.97726976732355 3.5 L 114.97726976732355 0 L 107.97726976732355 -3.5 L 107.97726976732355 -0.5 L 75.93785363366177 -0.5 Z"/><text text-anchor="middle" pointer-events="none" font-size="8px" fill="#000000" x="66.48863488366177" y="3" transform="rotate(180 66.48863488366177 0)" font-family="Helvetica Neue, Helvetica, Arial, sans-serif">use</text></g><g class="relationship" transform="translate(122.34014781358658 -0.5003506051995714) rotate(311.9400863775936)"><path class="b-outline" fill="#A5ABB6" stroke="none" d="M 25 0.5 L 63.98188638566643 0.5 L 63.98188638566643 -0.5 L 25 -0.5 Z M 82.88032388566643 0.5 L 121.86221027133286 0.5 L 121.86221027133286 3.5 L 128.86221027133286 0 L 121.86221027133286 -3.5 L 121.86221027133286 -0.5 L 82.88032388566643 -0.5 Z"/><text text-anchor="middle" pointer-events="none" font-size="8px" fill="#000000" x="73.43110513566643" y="3" font-family="Helvetica Neue, Helvetica, Arial, sans-serif">use</text></g><g class="relationship" transform="translate(122.34014781358658 -0.5003506051995714) rotate(225.05745653807116)"><path class="b-outline" fill="#A5ABB6" stroke="none" d="M 25 0.5 L 63.75072883053815 0.5 L 63.75072883053815 -0.5 L 25 -0.5 Z M 82.64916633053815 0.5 L 121.3998951610763 0.5 L 121.3998951610763 3.5 L 128.3998951610763 0 L 121.3998951610763 -3.5 L 121.3998951610763 -0.5 L 82.64916633053815 -0.5 Z"/><text text-anchor="middle" pointer-events="none" font-size="8px" fill="#000000" x="73.19994758053815" y="3" transform="rotate(180 73.19994758053815 0)" font-family="Helvetica Neue, Helvetica, Arial, sans-serif">use</text></g><g class="relationship" transform="translate(122.34014781358658 -0.5003506051995714) rotate(429.19252425925356)"><path class="b-outline" fill="#A5ABB6" stroke="none" d="M 25 0.5 L 71.9752119806575 0.5 L 71.9752119806575 -0.5 L 25 -0.5 Z M 90.8736494806575 0.5 L 137.848861461315 0.5 L 137.848861461315 3.5 L 144.848861461315 0 L 137.848861461315 -3.5 L 137.848861461315 -0.5 L 90.8736494806575 -0.5 Z"/><text text-anchor="middle" pointer-events="none" font-size="8px" fill="#000000" x="81.4244307306575" y="3" font-family="Helvetica Neue, Helvetica, Arial, sans-serif">use</text></g><g class="relationship" transform="translate(122.34014781358658 -0.5003506051995714) rotate(274.2082324190446)"><path class="b-outline" fill="#A5ABB6" stroke="none" d="M 25 0.5 L 64.19823487197647 0.5 L 64.19823487197647 -0.5 L 25 -0.5 Z M 83.09667237197647 0.5 L 122.29490724395293 0.5 L 122.29490724395293 3.5 L 129.29490724395293 0 L 122.29490724395293 -3.5 L 122.29490724395293 -0.5 L 83.09667237197647 -0.5 Z"/><text text-anchor="middle" pointer-events="none" font-size="8px" fill="#000000" x="73.64745362197647" y="3" font-family="Helvetica Neue, Helvetica, Arial, sans-serif">use</text></g><g class="relationship" transform="translate(-425.9451173582799 -147.37206520408358) rotate(401.4836337833378)"><path class="b-outline" fill="#A5ABB6" stroke="none" d="M 25 0.5 L 101.51658825543358 0.5 L 101.51658825543358 -0.5 L 25 -0.5 Z M 120.41502575543358 0.5 L 196.93161401086715 0.5 L 196.93161401086715 3.5 L 203.93161401086715 0 L 196.93161401086715 -3.5 L 196.93161401086715 -0.5 L 120.41502575543358 -0.5 Z"/><text text-anchor="middle" pointer-events="none" font-size="8px" fill="#000000" x="110.96580700543358" y="3" font-family="Helvetica Neue, Helvetica, Arial, sans-serif">use</text></g><g class="relationship" transform="translate(-425.9451173582799 -147.37206520408358) rotate(297.9130888910858)"><path class="b-outline" fill="#A5ABB6" stroke="none" d="M 25 0.5 L 63.239667141134674 0.5 L 63.239667141134674 -0.5 L 25 -0.5 Z M 82.13810464113467 0.5 L 120.37777178226935 0.5 L 120.37777178226935 3.5 L 127.37777178226935 0 L 120.37777178226935 -3.5 L 120.37777178226935 -0.5 L 82.13810464113467 -0.5 Z"/><text text-anchor="middle" pointer-events="none" font-size="8px" fill="#000000" x="72.68888589113467" y="3" font-family="Helvetica Neue, Helvetica, Arial, sans-serif">use</text></g><g class="relationship" transform="translate(-425.9451173582799 -147.37206520408358) rotate(336.50764579155737)"><path class="b-outline" fill="#A5ABB6" stroke="none" d="M 25 0.5 L 61.66216690277936 0.5 L 61.66216690277936 -0.5 L 25 -0.5 Z M 80.56060440277936 0.5 L 117.22277130555872 0.5 L 117.22277130555872 3.5 L 124.22277130555872 0 L 117.22277130555872 -3.5 L 117.22277130555872 -0.5 L 80.56060440277936 -0.5 Z"/><text text-anchor="middle" pointer-events="none" font-size="8px" fill="#000000" x="71.11138565277936" y="3" font-family="Helvetica Neue, Helvetica, Arial, sans-serif">use</text></g><g class="relationship" transform="translate(-425.9451173582799 -147.37206520408358) rotate(259.1140020281327)"><path class="b-outline" fill="#A5ABB6" stroke="none" d="M 25 0.5 L 60.787655583864165 0.5 L 60.787655583864165 -0.5 L 25 -0.5 Z M 79.68609308386417 0.5 L 115.47374866772833 0.5 L 115.47374866772833 3.5 L 122.47374866772833 0 L 115.47374866772833 -3.5 L 115.47374866772833 -0.5 L 79.68609308386417 -0.5 Z"/><text text-anchor="middle" pointer-events="none" font-size="8px" fill="#000000" x="70.23687433386417" y="3" transform="rotate(180 70.23687433386417 0)" font-family="Helvetica Neue, Helvetica, Arial, sans-serif">use</text></g><g class="relationship" transform="translate(-425.9451173582799 -147.37206520408358) rotate(186.1635933988141)"><path class="b-outline" fill="#A5ABB6" stroke="none" d="M 25 0.5 L 57.77829767997052 0.5 L 57.77829767997052 -0.5 L 25 -0.5 Z M 76.67673517997052 0.5 L 109.45503285994104 0.5 L 109.45503285994104 3.5 L 116.45503285994104 0 L 109.45503285994104 -3.5 L 109.45503285994104 -0.5 L 76.67673517997052 -0.5 Z"/><text text-anchor="middle" pointer-events="none" font-size="8px" fill="#000000" x="67.22751642997052" y="3" transform="rotate(180 67.22751642997052 0)" font-family="Helvetica Neue, Helvetica, Arial, sans-serif">use</text></g><g class="relationship" transform="translate(-123.65873220894335 -21.199415412345104) rotate(279.0119205020883)"><path class="b-outline" fill="#A5ABB6" stroke="none" d="M 25 0.5 L 63.84131940917537 0.5 L 63.84131940917537 -0.5 L 25 -0.5 Z M 82.73975690917537 0.5 L 121.58107631835074 0.5 L 121.58107631835074 3.5 L 128.58107631835074 0 L 121.58107631835074 -3.5 L 121.58107631835074 -0.5 L 82.73975690917537 -0.5 Z"/><text text-anchor="middle" pointer-events="none" font-size="8px" fill="#000000" x="73.29053815917537" y="3" font-family="Helvetica Neue, Helvetica, Arial, sans-serif">use</text></g><g class="relationship" transform="translate(-123.65873220894335 -21.199415412345104) rotate(393.895333857919)"><path class="b-outline" fill="#A5ABB6" stroke="none" d="M 25 0.5 L 58.891188877618006 0.5 L 58.891188877618006 -0.5 L 25 -0.5 Z M 77.789626377618 0.5 L 111.68081525523601 0.5 L 111.68081525523601 3.5 L 118.68081525523601 0 L 111.68081525523601 -3.5 L 111.68081525523601 -0.5 L 77.789626377618 -0.5 Z"/><text text-anchor="middle" pointer-events="none" font-size="8px" fill="#000000" x="68.340407627618" y="3" font-family="Helvetica Neue, Helvetica, Arial, sans-serif">use</text></g><g class="relationship" transform="translate(182.67537746701555 158.2708552300304) rotate(336.1232412070452)"><path class="b-outline" fill="#A5ABB6" stroke="none" d="M 25 0.5 L 82.16395412589911 0.5 L 82.16395412589911 -0.5 L 25 -0.5 Z M 117.06239162589911 0.5 L 174.22634575179822 0.5 L 174.22634575179822 3.5 L 181.22634575179822 0 L 174.22634575179822 -3.5 L 174.22634575179822 -0.5 L 117.06239162589911 -0.5 Z"/><text text-anchor="middle" pointer-events="none" font-size="8px" fill="#000000" x="99.61317287589911" y="3" font-family="Helvetica Neue, Helvetica, Arial, sans-serif">sameAs</text></g><g class="relationship" transform="translate(-123.65873220894335 -21.199415412345104) rotate(327.4423152822868)"><path class="b-outline" fill="#A5ABB6" stroke="none" d="M 25 0.5 L 68.70089171410015 0.5 L 68.70089171410015 -0.5 L 25 -0.5 Z M 87.59932921410015 0.5 L 131.3002209282003 0.5 L 131.3002209282003 3.5 L 138.3002209282003 0 L 131.3002209282003 -3.5 L 131.3002209282003 -0.5 L 87.59932921410015 -0.5 Z"/><text text-anchor="middle" pointer-events="none" font-size="8px" fill="#000000" x="78.15011046410015" y="3" font-family="Helvetica Neue, Helvetica, Arial, sans-serif">use</text></g></g><g class="layer nodes"><g class="node" aria-label="graph-node88" transform="translate(-378.2682543787198,91.61967663166615)" style="touch-action: none; -webkit-tap-highlight-color: rgba(0, 0, 0, 0);"><circle class="b-outline" cx="0" cy="0" r="25" fill="#F79767" stroke="#f36924" stroke-width="2px"/><text class="caption" text-anchor="middle" pointer-events="none" x="0" y="5" font-size="10px" fill="#FFFFFF" font-family="Helvetica Neue, Helvetica, Arial, sans-serif"> 1.45</text></g><g class="node" aria-label="graph-node3928" transform="translate(-518.2736432330869,129.57456541833895)" style="touch-action: none; -webkit-tap-highlight-color: rgba(0, 0, 0, 0);"><circle class="b-outline" cx="0" cy="0" r="25" fill="#C990C0" stroke="#b261a5" stroke-width="2px"/><text class="caption" text-anchor="middle" pointer-events="none" x="0" y="5" font-size="10px" fill="#FFFFFF" font-family="Helvetica Neue, Helvetica, Arial, sans-serif"> 利加隆</text></g><g class="node" aria-label="graph-node3907" transform="translate(-254.44215164089954,4.2736292411057075)" style="touch-action: none; -webkit-tap-highlight-color: rgba(0, 0, 0, 0);"><circle class="b-outline" cx="0" cy="0" r="25" fill="#C990C0" stroke="#b261a5" stroke-width="2px"/><text class="caption" text-anchor="middle" pointer-events="none" x="0" y="5" font-size="10px" fill="#FFFFFF" font-family="Helvetica Neue, Helvetica, Arial, sans-serif"> 格华止</text></g><g class="node" aria-label="graph-node3943" transform="translate(-438.11787325356,228.19616111360875)" style="touch-action: none; -webkit-tap-highlight-color: rgba(0, 0, 0, 0);"><circle class="b-outline" cx="0" cy="0" r="25" fill="#C990C0" stroke="#b261a5" stroke-width="2px"/><text class="caption" text-anchor="middle" pointer-events="none" x="0" y="5" font-size="10px" fill="#FFFFFF" font-family="Helvetica Neue, Helvetica, Arial, sans-serif"> 代文</text></g><g class="node" aria-label="graph-node35" transform="translate(-339.04097698026743,239.19077520202694)" style="touch-action: none; -webkit-tap-highlight-color: rgba(0, 0, 0, 0);"><circle class="b-outline" cx="0" cy="0" r="25" fill="#C990C0" stroke="#b261a5" stroke-width="2px"/><text class="caption" text-anchor="middle" pointer-events="none" x="0" y="5" font-size="10px" fill="#FFFFFF" font-family="Helvetica Neue, Helvetica, Arial, sans-serif"> 易善复</text></g><g class="node" aria-label="graph-node3926" transform="translate(-258.3534459434064,180.58056271206166)" style="touch-action: none; -webkit-tap-highlight-color: rgba(0, 0, 0, 0);"><circle class="b-outline" cx="0" cy="0" r="25" fill="#C990C0" stroke="#b261a5" stroke-width="2px"/><text class="caption" text-anchor="middle" pointer-events="none" x="0" y="5" font-size="10px" fill="#FFFFFF" font-family="Helvetica Neue, Helvetica, Arial, sans-serif"> 百泌达</text></g><g class="node" aria-label="graph-node89" transform="translate(-49.787606492380014,159.5778875168342)" style="touch-action: none; -webkit-tap-highlight-color: rgba(0, 0, 0, 0);"><circle class="b-outline" cx="0" cy="0" r="25" fill="#F79767" stroke="#f36924" stroke-width="2px"/><text class="caption" text-anchor="middle" pointer-events="none" x="0" y="5" font-size="10px" fill="#FFFFFF" font-family="Helvetica Neue, Helvetica, Arial, sans-serif"> 0.94</text></g><g class="node" aria-label="graph-node3930" transform="translate(182.67537746701555,158.2708552300304)" style="touch-action: none; -webkit-tap-highlight-color: rgba(0, 0, 0, 0);"><circle class="b-outline" cx="0" cy="0" r="25" fill="#C990C0" stroke="#b261a5" stroke-width="2px"/><text class="caption" text-anchor="middle" pointer-events="none" x="0" y="5" font-size="10px" fill="#FFFFFF" font-family="Helvetica Neue, Helvetica, Arial, sans-serif"> 立普妥</text></g><g class="node" aria-label="graph-node284" transform="translate(-13.374834777975806,309.8207125123182)" style="touch-action: none; -webkit-tap-highlight-color: rgba(0, 0, 0, 0);"><circle class="b-outline" cx="0" cy="0" r="25" fill="#C990C0" stroke="#b261a5" stroke-width="2px"/><text class="caption" text-anchor="middle" pointer-events="none" x="0" y="5" font-size="10px" fill="#FFFFFF" font-family="Helvetica Neue, Helvetica, Arial, sans-serif"> 安达唐</text></g><g class="node" aria-label="graph-node90" transform="translate(122.34014781358658,-0.5003506051995714)" style="touch-action: none; -webkit-tap-highlight-color: rgba(0, 0, 0, 0);"><circle class="b-outline" cx="0" cy="0" r="25" fill="#F79767" stroke="#f36924" stroke-width="2px"/><text class="caption" text-anchor="middle" pointer-events="none" x="0" y="5" font-size="10px" fill="#FFFFFF" font-family="Helvetica Neue, Helvetica, Arial, sans-serif"> </text></g><g class="node" aria-label="graph-node31" transform="translate(342.83842455981943,-99.68242106450893)" style="touch-action: none; -webkit-tap-highlight-color: rgba(0, 0, 0, 0);"><circle class="b-outline" cx="0" cy="0" r="25" fill="#C990C0" stroke="#b261a5" stroke-width="2px"/><text class="caption" text-anchor="middle" pointer-events="none" x="0" y="5" font-size="10px" fill="#FFFFFF" font-family="Helvetica Neue, Helvetica, Arial, sans-serif"> 维生素B</text></g><g class="node" aria-label="graph-node3931" transform="translate(371.2525054373135,74.79647300042608)" style="touch-action: none; -webkit-tap-highlight-color: rgba(0, 0, 0, 0);"><circle class="b-outline" cx="0" cy="0" r="25" fill="#C990C0" stroke="#b261a5" stroke-width="2px"/><text class="caption" text-anchor="middle" pointer-events="none" x="0" y="5" font-size="10px" fill="#FFFFFF" font-family="Helvetica Neue, Helvetica, Arial, sans-serif"> 阿托伐他…</text></g><g class="node" aria-label="graph-node404" transform="translate(248.10231299363878,83.04779560243402)" style="touch-action: none; -webkit-tap-highlight-color: rgba(0, 0, 0, 0);"><circle class="b-outline" cx="0" cy="0" r="25" fill="#C990C0" stroke="#b261a5" stroke-width="2px"/><text class="caption" text-anchor="middle" pointer-events="none" x="0" y="5" font-size="10px" fill="#FFFFFF" font-family="Helvetica Neue, Helvetica, Arial, sans-serif"> 胰岛素</text></g><g class="node" aria-label="graph-node3934" transform="translate(86.11236956355293,115.22218784242708)" style="touch-action: none; -webkit-tap-highlight-color: rgba(0, 0, 0, 0);"><circle class="b-outline" cx="0" cy="0" r="25" fill="#C990C0" stroke="#b261a5" stroke-width="2px"/><text class="caption" text-anchor="middle" pointer-events="none" x="0" y="5" font-size="10px" fill="#FFFFFF" font-family="Helvetica Neue, Helvetica, Arial, sans-serif"> 拜唐苹</text></g><g class="node" aria-label="graph-node356" transform="translate(295.16487493820557,-4.832157824550272)" style="touch-action: none; -webkit-tap-highlight-color: rgba(0, 0, 0, 0);"><circle class="b-outline" cx="0" cy="0" r="25" fill="#C990C0" stroke="#b261a5" stroke-width="2px"/><text class="caption" text-anchor="middle" pointer-events="none" x="0" y="5" font-size="10px" fill="#FFFFFF" font-family="Helvetica Neue, Helvetica, Arial, sans-serif"> 泰嘉</text></g><g class="node" aria-label="graph-node72" transform="translate(-4.395364467286095,58.928144062079724)" style="touch-action: none; -webkit-tap-highlight-color: rgba(0, 0, 0, 0);"><circle class="b-outline" cx="0" cy="0" r="25" fill="#C990C0" stroke="#b261a5" stroke-width="2px"/><text class="caption" text-anchor="middle" pointer-events="none" x="0" y="5" font-size="10px" fill="#FFFFFF" font-family="Helvetica Neue, Helvetica, Arial, sans-serif"> 善存</text></g><g class="node" aria-label="graph-node462" transform="translate(225.17443941705451,-114.94985134676143)" style="touch-action: none; -webkit-tap-highlight-color: rgba(0, 0, 0, 0);"><circle class="b-outline" cx="0" cy="0" r="25" fill="#C990C0" stroke="#b261a5" stroke-width="2px"/><text class="caption" text-anchor="middle" pointer-events="none" x="0" y="5" font-size="10px" fill="#FFFFFF" font-family="Helvetica Neue, Helvetica, Arial, sans-serif"> 诺和灵3…</text></g><g class="node" aria-label="graph-node3905" transform="translate(13.978870681322885,-109.07917659670653)" style="touch-action: none; -webkit-tap-highlight-color: rgba(0, 0, 0, 0);"><circle class="b-outline" cx="0" cy="0" r="25" fill="#C990C0" stroke="#b261a5" stroke-width="2px"/><text class="caption" text-anchor="middle" pointer-events="none" x="0" y="5" font-size="10px" fill="#FFFFFF" font-family="Helvetica Neue, Helvetica, Arial, sans-serif"> 阿法迪三</text></g><g class="node" aria-label="graph-node46" transform="translate(133.66253851965178,-154.37927011700032)" style="touch-action: none; -webkit-tap-highlight-color: rgba(0, 0, 0, 0);"><circle class="b-outline" cx="0" cy="0" r="25" fill="#C990C0" stroke="#b261a5" stroke-width="2px"/><text class="caption" text-anchor="middle" pointer-events="none" x="0" y="5" font-size="10px" fill="#FFFFFF" font-family="Helvetica Neue, Helvetica, Arial, sans-serif"> 阿法骨化…</text></g><g class="node" aria-label="graph-node91" transform="translate(-425.9451173582799,-147.37206520408358)" style="touch-action: none; -webkit-tap-highlight-color: rgba(0, 0, 0, 0);"><circle class="b-outline" cx="0" cy="0" r="25" fill="#F79767" stroke="#f36924" stroke-width="2px"/><text class="caption" text-anchor="middle" pointer-events="none" x="0" y="5" font-size="10px" fill="#FFFFFF" font-family="Helvetica Neue, Helvetica, Arial, sans-serif"> 2.31</text></g><g class="node" aria-label="graph-node456" transform="translate(-354.6122530446088,-282.02201062604337)" style="touch-action: none; -webkit-tap-highlight-color: rgba(0, 0, 0, 0);"><circle class="b-outline" cx="0" cy="0" r="25" fill="#C990C0" stroke="#b261a5" stroke-width="2px"/><text class="caption" text-anchor="middle" pointer-events="none" x="0" y="5" font-size="10px" fill="#FFFFFF" font-family="Helvetica Neue, Helvetica, Arial, sans-serif"> 诺和锐</text></g><g class="node" aria-label="graph-node458" transform="translate(-289.0909325654779,-206.85624445208762)" style="touch-action: none; -webkit-tap-highlight-color: rgba(0, 0, 0, 0);"><circle class="b-outline" cx="0" cy="0" r="25" fill="#C990C0" stroke="#b261a5" stroke-width="2px"/><text class="caption" text-anchor="middle" pointer-events="none" x="0" y="5" font-size="10px" fill="#FFFFFF" font-family="Helvetica Neue, Helvetica, Arial, sans-serif"> 诺和锐30</text></g><g class="node" aria-label="graph-node11" transform="translate(-453.7963407101265,-292.1920082503293)" style="touch-action: none; -webkit-tap-highlight-color: rgba(0, 0, 0, 0);"><circle class="b-outline" cx="0" cy="0" r="25" fill="#C990C0" stroke="#b261a5" stroke-width="2px"/><text class="caption" text-anchor="middle" pointer-events="none" x="0" y="5" font-size="10px" fill="#FFFFFF" font-family="Helvetica Neue, Helvetica, Arial, sans-serif"> 加斯清</text></g><g class="node" aria-label="graph-node408" transform="translate(-566.5824535138798,-162.55975760496452)" style="touch-action: none; -webkit-tap-highlight-color: rgba(0, 0, 0, 0);"><circle class="b-outline" cx="0" cy="0" r="25" fill="#C990C0" stroke="#b261a5" stroke-width="2px"/><text class="caption" text-anchor="middle" pointer-events="none" x="0" y="5" font-size="10px" fill="#FFFFFF" font-family="Helvetica Neue, Helvetica, Arial, sans-serif"> 奥克</text></g><g class="node" aria-label="graph-node92" transform="translate(-123.65873220894335,-21.199415412345104)" style="touch-action: none; -webkit-tap-highlight-color: rgba(0, 0, 0, 0);"><circle class="b-outline" cx="0" cy="0" r="25" fill="#F79767" stroke="#f36924" stroke-width="2px"/><text class="caption" text-anchor="middle" pointer-events="none" x="0" y="5" font-size="10px" fill="#FFFFFF" font-family="Helvetica Neue, Helvetica, Arial, sans-serif"> 2.96</text></g><g class="node" aria-label="graph-node61" transform="translate(-99.6017997559944,-172.8846520178148)" style="touch-action: none; -webkit-tap-highlight-color: rgba(0, 0, 0, 0);"><circle class="b-outline" cx="0" cy="0" r="25" fill="#C990C0" stroke="#b261a5" stroke-width="2px"/><text class="caption" text-anchor="middle" pointer-events="none" x="0" y="5" font-size="10px" fill="#FFFFFF" font-family="Helvetica Neue, Helvetica, Arial, sans-serif"> 钙尔奇</text></g></g></svg>